:SAMPLES-PER-SECOND 30
:FULLY-SPECIFIED
:DEGREES
374
root  3.50132 32.9662 -23.2266 6.86082 -2.33073 -3.47997
RightUpLeg  -29.7007 -41.9606 6.93171
RightLeg  35.8167 -13.6927 -8.46623
RightFoot  -2.11144 -0.00357586 0.405664
RightToes  -21.5098 -0.0900342 -0.188849
Spine  -2.5555 -4.29471 2.22867
Spine1  -5.28124 -9.8188 5.47121
HEad  -52.8276 -21.7885 16.6975
LeftShoulder1  -1.94126e-019 -3.10601e-018 -2.51263e-017
LeftArm  -16.5983 29.3573 -43.1891
LeftForeArm  19.4111 -19.4476 -3.4538
LeftHand  -0.332271 -0.0878469 7.10819
RightShoulder  -4.96962e-017 0 -2.36833e-017
RightArm  -46.5904 -42.0568 55.7849
RightForeArm  49.8055 9.52127 1.52462
RightHand  -0.24769 -3.21016 -12.6551
LeftUpLeg  1.06394 32.5903 16.6505
LeftLeg  33.3907 31.2171 16.4702
LeftFoot  11.8621 -0.803505 7.88437
LeftToes  -48.1704 1.9075e-006 4.29692e-008
375
root  2.06238 32.5199 -22.52 7.35512 -8.07344 -4.27498
RightUpLeg  -31.8 -41.8448 10.0338
RightLeg  40.5186 -8.51557 -6.35047
RightFoot  -8.33886 0.0588176 1.39884
RightToes  -13.6078 -0.0487627 -0.123548
Spine  -2.53282 -4.54604 2.23868
Spine1  -5.27797 -10.2955 5.5266
HEad  -51.4019 -19.5416 17.0138
LeftShoulder1  -1.94126e-019 -3.10601e-018 -2.51263e-017
LeftArm  -18.2268 30.8047 -47.1982
LeftForeArm  22.4628 -13.7221 -2.44579
LeftHand  -0.300005 0.402702 7.00182
RightShoulder  -4.96962e-017 0 -2.36833e-017
RightArm  -49.7926 -41.1182 60.1786
RightForeArm  53.445 8.61062 1.44608
RightHand  -0.0864166 -4.92612 -18.9547
LeftUpLeg  -0.0154758 29.1618 19.46
LeftLeg  42.0324 27.4232 20.0153
LeftFoot  18.3114 -1.84114 11.5485
LeftToes  -53.6871 1.9075e-006 4.29692e-008
376
root  0.816047 32.2776 -21.8976 7.33455 -14.2508 -4.66177
RightUpLeg  -30.4708 -38.8973 10.9269
RightLeg  41.9249 -6.08169 -4.79859
RightFoot  -12.1681 0.103345 1.54873
RightToes  -9.7644 -0.0320341 -0.0898787
Spine  -2.25252 -4.57531 2.01861
Spine1  -4.70245 -10.2838 5.06932
HEad  -48.7928 -17.4594 16.6845
LeftShoulder1  -1.94126e-019 -3.10601e-018 -2.51263e-017
LeftArm  -21.629 30.6262 -53.5787
LeftForeArm  27.7236 -8.08345 -1.41842
LeftHand  -0.328809 1.79803 10.4937
RightShoulder  -4.96962e-017 0 -2.36833e-017
RightArm  -55.8877 -38.8632 64.3175
RightForeArm  55.1964 6.51972 1.1301
RightHand  0.248792 -6.9305 -19.6349
LeftUpLeg  -1.98152 21.4724 19.5038
LeftLeg  50.6229 22.0094 21.8453
LeftFoot  25.278 -3.16023 14.1877
LeftToes  -46.2992 1.9075e-006 4.29692e-008
377
root  -0.236265 32.2765 -21.3128 7.52414 -21.237 -4.39076
RightUpLeg  -28.1016 -34.1773 10.6803
RightLeg  41.0872 -4.50503 -3.46222
RightFoot  -14.2645 0.101104 1.37735
RightToes  -8.28057 -0.0261857 -0.0765917
Spine  -2.05148 -4.35234 1.44849
Spine1  -4.21017 -9.73664 3.87269
HEad  -44.4821 -15.3251 15.4334
LeftShoulder1  -1.94126e-019 -3.10601e-018 -2.51263e-017
LeftArm  -26.0141 29.137 -60.6961
LeftForeArm  32.1597 -5.06242 -0.880959
LeftHand  -0.31199 2.75187 13.443
RightShoulder  -4.96962e-017 0 -2.36833e-017
RightArm  -62.8757 -36.3198 68.7047
RightForeArm  57.6331 4.22293 0.725466
RightHand  0.422727 -8.31685 -17.4346
LeftUpLeg  -4.57728 14.584 17.1313
LeftLeg  56.0177 11.6276 14.6234
LeftFoot  22.8539 -1.42236 7.19013
LeftToes  -38.8086 1.9075e-006 4.29692e-008
378
root  -1.20984 32.5822 -20.6693 8.10486 -28.6763 -4.11288
RightUpLeg  -25.076 -27.6185 10.0778
RightLeg  38.3576 -4.0234 -2.79924
RightFoot  -14.0566 0.081978 1.2314
RightToes  -8.37788 -0.0265587 -0.0774677
Spine  -2.14566 -3.96506 0.977572
Spine1  -4.35396 -8.78366 2.87922
HEad  -39.4206 -13.1564 11.9967
LeftShoulder1  -1.94126e-019 -3.10601e-018 -2.51263e-017
LeftArm  -27.9362 26.556 -67.9073
LeftForeArm  33.878 -3.68454 -0.634198
LeftHand  -0.389269 1.87218 12.7254
RightShoulder  -4.96962e-017 0 -2.36833e-017
RightArm  -65.3459 -34.6183 72.7833
RightForeArm  59.9014 2.9064 0.485183
RightHand  0.30976 -8.04844 -14.488
LeftUpLeg  -7.098 10.0737 14.0022
LeftLeg  58.9899 5.63712 8.0642
LeftFoot  16.2803 -0.346021 2.58031
LeftToes  -30.9989 1.9075e-006 4.29692e-008
379
root  -2.19624 33.1021 -19.9178 7.89638 -36.5302 -3.78505
RightUpLeg  -19.7953 -21.3588 8.65284
RightLeg  32.9825 -2.72242 -1.53984
RightFoot  -12.1543 0.0188729 0.734971
RightToes  -11.0821 -0.0375146 -0.101548
Spine  -2.03995 -3.43674 0.461459
Spine1  -4.09568 -7.56199 1.8139
HEad  -36.5673 -11.1801 7.95843
LeftShoulder1  -1.94126e-019 -3.10601e-018 -2.51263e-017
LeftArm  -24.1856 23.1056 -74.3111
LeftForeArm  32.6955 -6.74594 -1.17647
LeftHand  -0.39598 0.932507 10.2973
RightShoulder  -4.96962e-017 0 -2.36833e-017
RightArm  -56.7193 -33.7943 77.0933
RightForeArm  59.7484 4.30197 0.719445
RightHand  -0.0523721 -4.96177 -9.00438
LeftUpLeg  -8.07118 9.24477 11.5889
LeftLeg  58.8781 7.18163 10.1835
LeftFoot  15.7727 -0.436101 3.30909
LeftToes  -29.4104 1.9075e-006 4.29692e-008
380
root  -3.1658 33.6695 -19.2194 8.09729 -44.3995 -3.26457
RightUpLeg  -14.6975 -15.3143 7.4406
RightLeg  26.0146 -1.2753 -0.529889
RightFoot  -9.35023 -0.0190309 0.316437
RightToes  -14.0586 -0.0508717 -0.127421
Spine  -2.16521 -2.80732 -0.170635
Spine1  -4.28616 -6.16735 0.519037
HEad  -36.6241 -10.1312 4.77158
LeftShoulder1  -1.94126e-019 -3.10601e-018 -2.51263e-017
LeftArm  -19.0265 19.6076 -78.9109
LeftForeArm  34.2495 -14.2239 -2.54056
LeftHand  -0.409297 0.140823 9.10858
RightShoulder  -4.96962e-017 0 -2.36833e-017
RightArm  -45.5536 -33.978 80.4736
RightForeArm  62.5134 7.44203 1.26552
RightHand  -0.154881 1.95235 -2.62233
LeftUpLeg  -9.4077 10.755 9.95959
LeftLeg  56.4298 12.1153 15.418
LeftFoot  15.9577 -0.750955 5.51544
LeftToes  -31.1581 1.9075e-006 4.29692e-008
381
root  -4.04102 34.1403 -18.5694 8.27696 -51.8699 -2.07672
RightUpLeg  -10.6475 -9.168 5.95082
RightLeg  19.2659 -0.220968 -0.0633358
RightFoot  -6.43093 -0.0231065 0.133697
RightToes  -16.7373 -0.0640272 -0.150086
Spine  -2.49046 -2.32874 -0.9446
Spine1  -4.88041 -5.04047 -1.07072
HEad  -39.2812 -10.0083 3.01033
LeftShoulder1  -1.94126e-019 -3.10601e-018 -2.51263e-017
LeftArm  -11.8867 16.3145 -80.9816
LeftForeArm  34.9344 -24.0191 -4.27069
LeftHand  -0.480553 -0.355055 9.80825
RightShoulder  -4.96962e-017 0 -2.36833e-017
RightArm  -39.1642 -33.7702 82.4506
RightForeArm  63.0919 9.90923 1.54397
RightHand  0.203711 6.21755 1.69542
LeftUpLeg  -11.3922 12.6032 8.56946
LeftLeg  51.9462 16.5675 17.717
LeftFoot  13.0876 -0.648014 5.80622
LeftToes  -27.7328 1.9075e-006 4.29692e-008
382
root  -4.8209 34.4111 -17.9555 8.82793 -58.8626 -1.24187
RightUpLeg  -7.79991 -2.77185 4.72513
RightLeg  13.8927 0.283687 0.0513876
RightFoot  -4.10245 -0.0159057 0.102241
RightToes  -17.9748 -0.0704593 -0.160343
Spine  -2.89295 -2.00142 -1.57235
Spine1  -5.66149 -4.20494 -2.37116
HEad  -43.868 -11.2398 2.80028
LeftShoulder1  -1.94126e-019 -3.10601e-018 -2.51263e-017
LeftArm  -5.26024 12.804 -80.8693
LeftForeArm  33.7037 -34.5951 -5.79139
LeftHand  -0.554371 -0.614163 10.8342
RightShoulder  -4.96962e-017 0 -2.36833e-017
RightArm  -38.8035 -33.0304 83.243
RightForeArm  59.726 11.1874 1.53875
RightHand  0.259926 4.70732 2.69046
LeftUpLeg  -13.6397 13.5089 8.10809
LeftLeg  45.4446 18.8314 16.0712
LeftFoot  11.0071 -0.474787 5.08622
LeftToes  -26.6492 1.9075e-006 4.29692e-008
383
root  -5.52112 34.4642 -17.3315 9.8459 -65.4246 -1.36559
RightUpLeg  -5.6904 1.87671 3.79217
RightLeg  10.1673 1.64678 0.188123
RightFoot  -3.03272 -0.01327 0.0414695
RightToes  -18.4302 -0.0728818 -0.164082
Spine  -3.10142 -1.72513 -1.95309
Spine1  -6.08545 -3.47611 -3.17993
HEad  -49.8498 -13.7645 3.84956
LeftShoulder1  -1.94126e-019 -3.10601e-018 -2.51263e-017
LeftArm  -2.59149 8.33179 -79.4579
LeftForeArm  33.565 -43.8447 -8.50932
LeftHand  -0.629174 -1.56216 10.6737
RightShoulder  -4.96962e-017 0 -2.36833e-017
RightArm  -39.1917 -31.5749 82.7601
RightForeArm  56.813 12.1715 1.47549
RightHand  0.0259137 2.96837 0.135578
LeftUpLeg  -15.5333 12.4928 8.86572
LeftLeg  37.878 19.1476 12.559
LeftFoot  9.30314 -0.314965 4.03118
LeftToes  -25.1571 1.9075e-006 4.29692e-008
384
root  -6.22877 34.3425 -16.6418 12.2336 -70.96 -3.72301
RightUpLeg  -3.96993 4.85872 3.29712
RightLeg  8.65061 3.88782 0.338922
RightFoot  -3.08061 -0.0165047 -0.0841022
RightToes  -20.8013 -0.0859708 -0.183234
Spine  -3.05266 -1.76458 -1.9418
Spine1  -6.00254 -3.40366 -3.19218
HEad  -55.7909 -16.8455 5.61131
LeftShoulder1  -1.94126e-019 -3.10601e-018 -2.51263e-017
LeftArm  -1.08524 3.05981 -77.2782
LeftForeArm  31.95 -50.8083 -11.3457
LeftHand  -0.610481 -2.02291 9.75143
RightShoulder  -4.96962e-017 0 -2.36833e-017
RightArm  -38.3362 -29.2464 80.9359
RightForeArm  54.7887 13.019 1.39713
RightHand  -0.266472 1.88064 -4.42687
LeftUpLeg  -16.3736 7.75002 11.4607
LeftLeg  29.8967 18.3389 8.80211
LeftFoot  7.74293 -0.193607 3.02191
LeftToes  -25.883 1.9075e-006 4.29692e-008
